<?xml version="1.0" encoding="utf-8"?>
<!-- Generator: Adobe Illustrator 16.0.0, SVG Export Plug-In . SVG Version: 6.00 Build 0)  -->
<!DOCTYPE svg PUBLIC "-//W3C//DTD SVG 1.1//EN" "http://www.w3.org/Graphics/SVG/1.1/DTD/svg11.dtd">
<svg version="1.1" id="Layer_1" xmlns="http://www.w3.org/2000/svg" xmlns:xlink="http://www.w3.org/1999/xlink" x="0px" y="0px"
	 width="30px" height="30px" viewBox="0 0 30 30" enable-background="new 0 0 30 30" xml:space="preserve">
<path fill-rule="evenodd" clip-rule="evenodd" d="M-8.381,14.981C-8.362,2.066,2.137-8.412,15.03-8.381
	C27.951-8.35,38.419,2.149,38.381,15.041c-0.039,12.907-10.501,23.349-23.39,23.34C2.079,38.372-8.4,27.88-8.381,14.981z"/>
<path fill-rule="evenodd" clip-rule="evenodd" fill="#FEFEFE" d="M3.307,15.001c0-1.123,0.008-2.245-0.005-3.366
	c-0.005-0.496,0.175-0.853,0.594-1.131c3.478-2.308,6.95-4.624,10.419-6.944c0.469-0.314,0.902-0.314,1.371,0
	c3.47,2.32,6.942,4.636,10.418,6.944c0.406,0.27,0.595,0.613,0.593,1.098c-0.007,2.266-0.008,4.532,0,6.798
	c0.002,0.484-0.188,0.827-0.594,1.098c-3.477,2.308-6.947,4.626-10.419,6.94c-0.511,0.34-0.856,0.34-1.367,0
	c-3.473-2.314-6.943-4.633-10.421-6.94c-0.419-0.279-0.6-0.637-0.594-1.131C3.315,17.245,3.307,16.122,3.307,15.001z"/>
<path fill-rule="evenodd" clip-rule="evenodd" d="M6.125,11.439c2.615-1.743,5.208-3.472,7.798-5.198
	c0.112,0.071,0.065,0.168,0.066,0.245c0.003,1.375-0.002,2.75,0.007,4.125c0.001,0.199-0.062,0.314-0.228,0.424
	c-1.311,0.866-2.613,1.742-3.918,2.615c-0.105,0.07-0.186,0.165-0.343,0.058C8.389,12.95,7.264,12.202,6.125,11.439z"/>
<path fill-rule="evenodd" clip-rule="evenodd" d="M23.876,11.439c-1.147,0.768-2.261,1.511-3.37,2.26
	c-0.107,0.073-0.185,0.072-0.292,0c-1.348-0.907-2.698-1.811-4.051-2.713c-0.098-0.065-0.157-0.13-0.157-0.261
	c0.005-1.485,0.004-2.969,0.004-4.529C18.65,7.956,21.246,9.687,23.876,11.439z"/>
<path fill-rule="evenodd" clip-rule="evenodd" d="M13.954,23.78c-2.609-1.739-5.199-3.466-7.823-5.214
	c0.118-0.083,0.217-0.156,0.319-0.225c0.985-0.66,1.974-1.315,2.955-1.982c0.166-0.113,0.276-0.132,0.457-0.01
	c1.298,0.884,2.606,1.753,3.913,2.625c0.121,0.08,0.222,0.145,0.221,0.326c-0.009,1.451-0.005,2.904-0.007,4.355
	C13.989,23.686,13.973,23.713,13.954,23.78z"/>
<path fill-rule="evenodd" clip-rule="evenodd" d="M16.01,23.807c0-1.561,0.001-3.045-0.004-4.529c0-0.13,0.058-0.196,0.155-0.262
	c1.353-0.903,2.703-1.806,4.053-2.713c0.104-0.07,0.18-0.077,0.289-0.004c1.11,0.751,2.224,1.493,3.373,2.263
	C21.257,20.308,18.662,22.036,16.01,23.807z"/>
<path fill-rule="evenodd" clip-rule="evenodd" d="M11.446,15c1.156-0.773,2.286-1.526,3.415-2.283
	c0.091-0.062,0.158-0.083,0.262-0.013c1.135,0.764,2.272,1.522,3.431,2.296c-1.154,0.771-2.285,1.526-3.413,2.283
	c-0.091,0.063-0.158,0.084-0.262,0.014C13.743,16.533,12.604,15.775,11.446,15z"/>
<path fill-rule="evenodd" clip-rule="evenodd" d="M5.329,16.675c0-1.136,0-2.208,0-3.346c0.844,0.564,1.655,1.105,2.502,1.669
	C6.998,15.557,6.188,16.1,5.329,16.675z"/>
<path fill-rule="evenodd" clip-rule="evenodd" d="M24.665,13.33c0,1.131,0,2.21,0,3.338c-0.846-0.564-1.661-1.11-2.496-1.667
	C22.998,14.445,23.807,13.904,24.665,13.33z"/>
</svg>
