<?xml version="1.0" encoding="utf-8"?>
<!-- Generator: Adobe Illustrator 19.0.0, SVG Export Plug-In . SVG Version: 6.00 Build 0)  -->
<svg version="1.1" id="Layer_1" xmlns="http://www.w3.org/2000/svg" xmlns:xlink="http://www.w3.org/1999/xlink" x="0px" y="0px"
	 viewBox="-237 239 24 24" style="enable-background:new -237 239 24 24;" xml:space="preserve">
<style type="text/css">
	.st0{fill:none;}
	.st1{fill:#EEEEEE;}
</style>
<path class="st0" d="M-237,239h24v24h-24V239z"/>
<path class="st1" d="M-215,255v-12c0-1.1-0.9-2-2-2h-12c-1.1,0-2,0.9-2,2v12c0,1.1,0.9,2,2,2h12C-215.9,257-215,256.1-215,255z
	 M-226,251l2,2.7l3-3.7l4,5h-12L-226,251z M-235,245v14c0,1.1,0.9,2,2,2h14v-2h-14v-14H-235z"/>
</svg>
