<?xml version="1.0" encoding="utf-8"?>
<!-- Generator: Adobe Illustrator 18.0.0, SVG Export Plug-In . SVG Version: 6.00 Build 0)  -->
<!DOCTYPE svg PUBLIC "-//W3C//DTD SVG 1.1//EN" "http://www.w3.org/Graphics/SVG/1.1/DTD/svg11.dtd">
<svg version="1.1" id="Layer_1" xmlns="http://www.w3.org/2000/svg" xmlns:xlink="http://www.w3.org/1999/xlink" x="0px" y="0px"
	 viewBox="0 0 60 60" enable-background="new 0 0 60 60" xml:space="preserve">
<path fill="#009444" d="M30,70c-11.8,0-23.5,0-35.3,0c-1.2,0-2.3-0.3-3.2-1.1c-0.8-0.8-1.3-1.7-1.4-2.8c0-0.3,0-0.5,0-0.8
	c0-23.5,0-47,0-70.5C-9.9-7.4-8.9-9-7-9.7c0.5-0.2,1.1-0.2,1.6-0.2c23.6,0,47.2,0,70.8,0c2.8,0,4.5,1.8,4.5,4.6
	c0,23.6,0,47.1,0,70.7c0,2.8-1.8,4.6-4.6,4.6C53.6,70,41.8,70,30,70z"/>
<path fill="#FEFEFE" d="M34.2,35.6c-0.1,0.1-0.2,0.2,0,0.2c0.1,0,0.2,0,0.4,0c4.8,0,9.6,0,14.3,0c0.4,0,0.5,0.1,0.5,0.5
	c0,3.9,0,7.9,0,11.8c0,0.4-0.1,0.5-0.5,0.5c-7.3,0-14.5,0-21.8,0c-0.4,0-0.6,0.1-0.8,0.4c-1.5,2.6-3,5.2-4.5,7.8
	c-0.2,0.3-0.3,0.4-0.6,0.4c-3.4,0-6.8,0-10.2,0c-0.4,0-0.4-0.1-0.4-0.5c0-1.9,0-3.7,0-5.6c0-0.3,0.1-0.5,0.2-0.8
	c3.1-5.4,6.3-10.8,9.4-16.2c0.1-0.1,0.1-0.3,0.2-0.4c0.2-0.7,0.6-1.2,1-1.8c1.4-2.4,2.8-4.8,4.2-7.2c0.1-0.2,0.2-0.3,0.3-0.4
	c0.1-0.1,0.2-0.2,0-0.2c-0.1,0-0.2,0-0.4,0c-4.8,0-9.6,0-14.4,0c-0.4,0-0.5-0.1-0.5-0.5c0-3.9,0-7.9,0-11.8c0-0.4,0.1-0.5,0.5-0.5
	c7.3,0,14.6,0,21.9,0c0.3,0,0.5-0.1,0.7-0.4c1.5-2.6,3-5.2,4.5-7.8c0.2-0.3,0.3-0.4,0.6-0.4c3.4,0,6.8,0,10.2,0
	c0.4,0,0.5,0.1,0.5,0.5c0,1.8,0,3.6,0,5.4c0,0.3-0.1,0.6-0.2,0.9c-3.1,5.4-6.3,10.8-9.4,16.2c-0.1,0.1-0.1,0.2-0.2,0.4
	c-0.2,0.7-0.6,1.2-1,1.8c-1.4,2.4-2.8,4.8-4.2,7.2C34.4,35.4,34.4,35.6,34.2,35.6z"/>
<path fill="#00813B" d="M25.8,24.4c-0.7,1.3-1.5,2.6-2.2,3.9c-1.1,1.9-2.2,3.7-3.2,5.6c-0.2,0-0.2-0.1-0.3-0.2
	c-3.1-3.1-6.1-6.1-9.2-9.2c0,0-0.1-0.1-0.1-0.1c0.1-0.1,0.2-0.1,0.3-0.1c4.8,0,9.6,0,14.4,0C25.6,24.2,25.8,24.2,25.8,24.4z"/>
<path fill="#00813B" d="M34.2,35.6c1-1.8,2-3.6,3.1-5.4c0.8-1.4,1.6-2.7,2.4-4.1c0.2,0,0.2,0.1,0.3,0.2c3.1,3.1,6.1,6.1,9.2,9.2
	c0,0,0.1,0.1,0.1,0.1c-0.1,0.1-0.2,0.1-0.3,0.1c-4.8,0-9.6,0-14.4,0C34.5,35.8,34.3,35.9,34.2,35.6z"/>
</svg>
