<?xml version="1.0" encoding="utf-8"?>
<!-- Generator: Adobe Illustrator 16.0.0, SVG Export Plug-In . SVG Version: 6.00 Build 0)  -->
<!DOCTYPE svg PUBLIC "-//W3C//DTD SVG 1.1//EN" "http://www.w3.org/Graphics/SVG/1.1/DTD/svg11.dtd">
<svg version="1.1" id="Layer_1" xmlns="http://www.w3.org/2000/svg" xmlns:xlink="http://www.w3.org/1999/xlink" x="0px" y="0px"
	 width="30px" height="30px" viewBox="0 0 30 30" enable-background="new 0 0 30 30" xml:space="preserve">
<rect fill="#66D4FF" width="30" height="30"/>
<g>
	<path d="M15,2.883c-6.86,0-12.423,5.562-12.423,12.422c0,5.489,3.56,10.145,8.496,11.788c0.62,0.115,0.848-0.269,0.848-0.597
		c0-0.297-0.011-1.276-0.017-2.313c-3.456,0.75-4.185-1.467-4.185-1.467C7.154,21.281,6.341,20.9,6.341,20.9
		c-1.128-0.771,0.084-0.755,0.084-0.755c1.248,0.087,1.904,1.28,1.904,1.28c1.108,1.899,2.906,1.35,3.615,1.033
		c0.111-0.805,0.434-1.351,0.789-1.662c-2.76-0.313-5.66-1.379-5.66-6.139c0-1.356,0.485-2.464,1.279-3.335
		C8.225,11.01,7.799,9.747,8.475,8.036c0,0,1.042-0.334,3.416,1.274c0.99-0.275,2.054-0.414,3.11-0.418
		c1.055,0.004,2.118,0.143,3.111,0.418c2.371-1.608,3.413-1.274,3.413-1.274c0.676,1.711,0.251,2.974,0.121,3.287
		c0.796,0.87,1.279,1.979,1.279,3.335c0,4.771-2.906,5.82-5.672,6.129c0.445,0.386,0.842,1.142,0.842,2.3
		c0,1.663-0.014,3.002-0.014,3.411c0,0.33,0.224,0.717,0.854,0.596c4.934-1.645,8.487-6.299,8.487-11.786
		C27.421,8.445,21.86,2.883,15,2.883z"/>
	<path d="M7.282,20.719c-0.027,0.062-0.124,0.08-0.213,0.038c-0.091-0.041-0.141-0.125-0.112-0.188
		c0.027-0.063,0.125-0.081,0.215-0.038C7.262,20.572,7.313,20.658,7.282,20.719L7.282,20.719z"/>
	<path d="M7.785,21.28c-0.06,0.054-0.175,0.029-0.254-0.058c-0.081-0.087-0.096-0.203-0.035-0.259
		c0.06-0.055,0.173-0.029,0.254,0.058C7.832,21.11,7.848,21.224,7.785,21.28L7.785,21.28z"/>
	<path d="M8.275,21.995C8.199,22.049,8.074,22,7.997,21.889c-0.075-0.111-0.075-0.243,0.002-0.296
		c0.077-0.055,0.2-0.006,0.277,0.104C8.353,21.809,8.353,21.941,8.275,21.995L8.275,21.995z"/>
	<path d="M8.946,22.688c-0.068,0.074-0.214,0.054-0.319-0.049c-0.109-0.1-0.139-0.242-0.071-0.317
		c0.069-0.074,0.216-0.054,0.322,0.048C8.986,22.47,9.019,22.612,8.946,22.688L8.946,22.688z"/>
	<path d="M9.872,23.087c-0.031,0.099-0.17,0.143-0.311,0.103c-0.141-0.043-0.233-0.158-0.204-0.257
		c0.028-0.098,0.169-0.145,0.311-0.1C9.809,22.876,9.901,22.989,9.872,23.087L9.872,23.087z"/>
	<path d="M10.888,23.162c0.004,0.104-0.115,0.188-0.263,0.189c-0.149,0.004-0.27-0.08-0.271-0.181c0-0.104,0.117-0.188,0.266-0.189
		C10.767,22.979,10.888,23.062,10.888,23.162L10.888,23.162z"/>
	<path d="M11.834,23.001c0.019,0.101-0.085,0.204-0.231,0.231c-0.145,0.026-0.277-0.037-0.297-0.136
		c-0.018-0.102,0.087-0.205,0.23-0.232C11.685,22.84,11.815,22.899,11.834,23.001L11.834,23.001z"/>
</g>
</svg>
