<?xml version="1.0" encoding="utf-8"?>
<!-- Generator: Adobe Illustrator 19.0.0, SVG Export Plug-In . SVG Version: 6.00 Build 0)  -->
<svg version="1.1" id="Layer_1" xmlns="http://www.w3.org/2000/svg" xmlns:xlink="http://www.w3.org/1999/xlink" x="0px" y="0px"
	 viewBox="-219 221 60 60" style="enable-background:new -219 221 60 60;" xml:space="preserve">
<style type="text/css">
	.st0{fill:#FEFEFE;}
	.st1{fill:#00813B;}
	.st2{fill:#DC4A38;}
	.st3{fill:#FFFFFF;}
</style>
<path class="st0" d="M-184.8,256.6c-0.1,0.1-0.2,0.2,0,0.2c0.1,0,0.2,0,0.4,0c4.8,0,9.6,0,14.3,0c0.4,0,0.5,0.1,0.5,0.5
	c0,3.9,0,7.9,0,11.8c0,0.4-0.1,0.5-0.5,0.5c-7.3,0-14.5,0-21.8,0c-0.4,0-0.6,0.1-0.8,0.4c-1.5,2.6-3,5.2-4.5,7.8
	c-0.2,0.3-0.3,0.4-0.6,0.4c-3.4,0-6.8,0-10.2,0c-0.4,0-0.4-0.1-0.4-0.5c0-1.9,0-3.7,0-5.6c0-0.3,0.1-0.5,0.2-0.8
	c3.1-5.4,6.3-10.8,9.4-16.2c0.1-0.1,0.1-0.3,0.2-0.4c0.2-0.7,0.6-1.2,1-1.8c1.4-2.4,2.8-4.8,4.2-7.2c0.1-0.2,0.2-0.3,0.3-0.4
	c0.1-0.1,0.2-0.2,0-0.2c-0.1,0-0.2,0-0.4,0c-4.8,0-9.6,0-14.4,0c-0.4,0-0.5-0.1-0.5-0.5c0-3.9,0-7.9,0-11.8c0-0.4,0.1-0.5,0.5-0.5
	c7.3,0,14.6,0,21.9,0c0.3,0,0.5-0.1,0.7-0.4c1.5-2.6,3-5.2,4.5-7.8c0.2-0.3,0.3-0.4,0.6-0.4c3.4,0,6.8,0,10.2,0
	c0.4,0,0.5,0.1,0.5,0.5c0,1.8,0,3.6,0,5.4c0,0.3-0.1,0.6-0.2,0.9c-3.1,5.4-6.3,10.8-9.4,16.2c-0.1,0.1-0.1,0.2-0.2,0.4
	c-0.2,0.7-0.6,1.2-1,1.8c-1.4,2.4-2.8,4.8-4.2,7.2C-184.6,256.4-184.6,256.6-184.8,256.6z"/>
<path class="st1" d="M-193.2,245.4c-0.7,1.3-1.5,2.6-2.2,3.9c-1.1,1.9-2.2,3.7-3.2,5.6c-0.2,0-0.2-0.1-0.3-0.2
	c-3.1-3.1-6.1-6.1-9.2-9.2l-0.1-0.1c0.1-0.1,0.2-0.1,0.3-0.1c4.8,0,9.6,0,14.4,0C-193.4,245.2-193.2,245.2-193.2,245.4z"/>
<path class="st1" d="M-184.8,256.6c1-1.8,2-3.6,3.1-5.4c0.8-1.4,1.6-2.7,2.4-4.1c0.2,0,0.2,0.1,0.3,0.2c3.1,3.1,6.1,6.1,9.2,9.2
	l0.1,0.1c-0.1,0.1-0.2,0.1-0.3,0.1c-4.8,0-9.6,0-14.4,0C-184.5,256.8-184.7,256.9-184.8,256.6z"/>
<g>
	<path class="st2" d="M-153.9,217h-66.8c-1.2,0-2.2,1-2.2,2.2v65.2c0,1.2,1,2.2,2.2,2.2h66.8c1.2,0,2.2-1,2.2-2.2v-65.2
		C-151.6,218-152.6,217-153.9,217z"/>
	<g>
		<path class="st3" d="M-185.5,255.2l-2.2-1.7c-0.7-0.6-1.6-1.3-1.6-2.7c0-1.4,0.9-2.3,1.7-3.1c2.6-2.1,5.2-4.3,5.2-8.9
			c0-4.8-3-7.3-4.4-8.4h3.9l4.1-2.5h-12.3c-3.4,0-8.2,0.8-11.8,3.7c-2.7,2.3-4,5.5-4,8.4c0,4.9,3.7,9.8,10.4,9.8
			c0.6,0,1.3-0.1,2-0.1c-0.3,0.8-0.6,1.4-0.6,2.4c0,1.9,1,3.1,1.9,4.2c-2.8,0.2-8.1,0.5-11.9,2.9c-3.7,2.2-4.8,5.4-4.8,7.6
			c0,4.6,4.4,8.9,13.4,8.9c10.7,0,16.4-5.9,16.4-11.8C-180.2,259.7-182.7,257.5-185.5,255.2z M-193.6,248c-5.4,0-7.8-6.9-7.8-11.1
			c0-1.6,0.3-3.3,1.4-4.6c1-1.3,2.7-2.1,4.4-2.1c5.2,0,7.9,7,7.9,11.5c0,1.1-0.1,3.1-1.6,4.6C-190.4,247.3-192.1,248-193.6,248z
			 M-193.6,273.2c-6.7,0-11-3.2-11-7.6c0-4.4,4-5.9,5.4-6.4c2.6-0.9,6-1,6.5-1c0.6,0,0.9,0,1.4,0.1c4.7,3.4,6.8,5.1,6.8,8.3
			C-184.4,270.3-187.6,273.2-193.6,273.2z"/>
		<polygon class="st3" points="-169.7,247.9 -169.7,241.7 -172.8,241.7 -172.8,247.9 -179,247.9 -179,251.1 -172.8,251.1 
			-172.8,257.3 -169.7,257.3 -169.7,251.1 -163.4,251.1 -163.4,247.9 		"/>
	</g>
</g>
</svg>
