<?xml version="1.0" encoding="utf-8"?>
<!-- Generator: Adobe Illustrator 19.0.0, SVG Export Plug-In . SVG Version: 6.00 Build 0)  -->
<svg version="1.1" id="Layer_1" xmlns="http://www.w3.org/2000/svg" xmlns:xlink="http://www.w3.org/1999/xlink" x="0px" y="0px"
	 viewBox="-20 22 18 18" style="enable-background:new -20 22 18 18;" xml:space="preserve">
<style type="text/css">
	.st0{fill:none;}
	.st1{fill:#FFFFFF;}
</style>
<path class="st0" d="M-20,22h18v18h-18V22z"/>
<path class="st1" d="M-16,26c0.8-0.8,2.1-0.8,3,0l2.8,2.8l1.3-1.3l-2.8-2.8c-1.6-1.6-4.1-1.6-5.7,0s-1.6,4.1,0,5.7l2.8,2.8l1.3-1.3
	l-2.8-2.8C-16.8,28.1-16.8,26.8-16,26z M-4.6,31.7l-2.8-2.8l-1.3,1.3l2.8,2.8c0.8,0.8,0.8,2.1,0,3s-2.1,0.8-3,0l-2.8-2.8l-1.3,1.3
	l2.8,2.8c1.6,1.6,4.1,1.6,5.7,0S-3.1,33.3-4.6,31.7z M-13.8,29.6l4.2,4.2l1.4-1.4l-4.2-4.2L-13.8,29.6z"/>
</svg>
