<?xml version="1.0" encoding="utf-8"?>
<!-- Generator: Adobe Illustrator 16.0.0, SVG Export Plug-In . SVG Version: 6.00 Build 0)  -->
<!DOCTYPE svg PUBLIC "-//W3C//DTD SVG 1.1//EN" "http://www.w3.org/Graphics/SVG/1.1/DTD/svg11.dtd">
<svg version="1.1" id="Layer_1" xmlns="http://www.w3.org/2000/svg" xmlns:xlink="http://www.w3.org/1999/xlink" x="0px" y="0px"
	 width="200px" height="200px" viewBox="0 0 200 200" enable-background="new 0 0 200 200" xml:space="preserve">
<g>
	<path fill="#214F64" d="M113.25,35.373c-0.25,0-18.245,3.583-20.706,15.5c0,0-0.461,1.417-1.794,2.667
		c-1.333,1.25-1.167,1-2.583,2.083c-1.417,1.083-1.25,0.5-2,1.417c-0.75,0.917-0.583,1.5-0.833,2.417s-0.167,1.656,0.5,2.412
		c0.667,0.755,0.167,0.755,2.25,1.838c2.083,1.083,2.333,0.583,3.667,1.333c1.333,0.75,2.577,1.333,4.289,1.667
		c1.712,0.333,1.943-0.167,3.494,1.167s0.718,0.75,1.968,2.917c1.25,2.167,0.417,2.833,0.417,4.5c0,1.667-0.584,2.583-0.5,3.917
		c0.083,1.333,0.416,1.833,0.583,3.167c0.167,1.333,0.417,0.579,0,2.123c-0.417,1.543-0.083,1.965-0.333,2.921
		c-0.25,0.956,0.916,0.623-0.5,2.206c-1.417,1.583-3.352,1.5-1.635,2.667c1.718,1.167,1.718,0.833,2.385,2
		c0.666,1.167,0.229,1.083,0.614,1.917s-0.219,1.333,0,1.917c0.219,0.583,1.031,0.688,0,2.124s-1.489,1.438-0.469,2.574
		s1.938,0.636,2.688,1.136s1.083-0.5,1.75,1.25s1.083,2.166,0.333,3.416s-0.333,0.834-1.75,1.25
		c-1.416,0.417-2.438-0.25-2.552,0.417s-1.198,0.148-0.614,1.241c0.583,1.093,0.416,0.926,1.583,1.676s1.5-0.583,2.417,1.167
		c0.916,1.75,1.833,2.25,0.666,2.75c-1.166,0.5,0.084,0.916-1.75,0.666c-1.833-0.25-4.463-0.852-5.606,0.074
		s-1.727,3.093,0.69,4.093s5.417,2.417,5.417,2.417s1.667,0.166,2.25,0.916c0.584,0.75,1.25,0.834,1.25,1.834s-0.75,2.583-1,2.75
		s-2.416,1.333-2.75,1.417c-0.333,0.083-2.552,1.5-2.552,1.5l-2.198,1.5c0,0-1.75,2.416-1.833,2.666c-0.083,0.25-1,3.584-1,3.584
		s0.917,3.75,5,2.333c0,0,1.917-1.916,1.917-2.166s0.333-1.084,1.166-1.334c0.834-0.25,1.25-1.25,2.25-0.25s1.334,1.167,1.75,1.584
		c0.417,0.416,2.334,1.083,3.167,1.666c0.834,0.584,1.417,1.084,2.75,1.667c1.334,0.583,2.75,1.083,3.084,1.167
		c0.333,0.083,1.583,0.5,2.25,0.583c0.666,0.083,2.166-0.417,2.583,0s1.5,0.333,1.083,1.5c-0.416,1.167-0.583,1.417-1,2.667
		c-0.416,1.25-2.833,3.166-3.5,3.583c-0.666,0.417-5.916,4.636-6.25,4.568c-0.333-0.068-3.917,2.099-4.333,2.182
		c-0.417,0.084-7.417,2.084-8.667,7.25c0,0-1.833,3.334-2.5,3.501c-0.667,0.166-2.583,0.25-3,1.583
		c-0.417,1.333-1,3.583-0.917,4.167c0.083,0.583,1,8.667-0.083,11c0,0-3,6.167-10.833,3.333c0,0-5.167-5.25-15-6.75
		c0,0-3.5-6.167-4.25-8.75s1.583-14.516,1.583-14.516l2.583-2.068c0,0,1.529-10.239-0.069-20.287l-6.098-12.464l-5.083-12l-2.583-15
		l0.833-35.187l8.833-21.398l19.917-12.333l18.417-1.333L113.25,35.373z"/>
	<g>
		<path fill="#161313" d="M155.142,86.886c-0.666,0.222-3.778,1.777-4.667,1.555c-0.891-0.222-1.336-2.222-1.557-3.555
			c-0.222-1.333,1.778-7.112,1.111-7.112c-0.666,0-0.666,0-0.666,0c-0.254-1.1,0.241-2,1.099-2s1.838-1.321,2.179-2.936
			c0,0,0.037-0.176-0.619-0.398c-0.658-0.222,0.232,0.667-0.658-0.222c-0.889-0.889,0.666-3.111-0.667-3.333
			s-0.442,1.556-1.333-0.222c-0.889-1.778-0.889-1.778-0.889-1.778c0.235-1.222,0.404-3.472,0.375-5
			c-0.028-1.528-0.325-3.428-0.658-4.222c-0.334-0.794-1.058-1.444-1.607-1.444s-1-0.55-1-1.222c0-0.672,0.3-1.223,0.667-1.223
			s0.967-0.6,1.333-1.333c0,0,0,0-0.442-0.667c-0.445-0.667-4.618-4.264-4.618-4.264c-1.25-1.077-3.021-3.082-3.937-4.455
			c0,0-1.003-1.504-2.336-2.615c-1.334-1.111-2.591-1.925-2.591-1.925c-1.386-0.897-3.861-1.771-5.502-1.942l-4.7-0.489
			c-1.641-0.171-4.29,0.029-5.887,0.444l-5.306,1.38c-1.597,0.415-4.243,0.917-5.882,1.116l-8.71,1.056
			c-1.638,0.198-4.177,0.981-5.643,1.739c0,0-3.781,1.955-4.669,1.955c-0.89,0-6.787,0.442-6.787,0.442
			c-1.646,0.123-4.337,0.11-5.981-0.029c0,0-10.123-0.857-9.678,9.143c0.445,10-0.113,10.837-0.113,10.837
			c-0.915,1.373-2.008,3.802-2.428,5.397c0,0-1.459,5.543-2.347,6.209c-0.89,0.667-2.445,7.556-2.89,9.112
			c-0.444,1.555-0.122,9.447-0.122,9.447c0.067,1.648,0.208,4.345,0.313,5.992l0.509,8.012c0.105,1.646,0.476,4.313,0.824,5.927
			l0.51,2.356c0.349,1.613,0.834,3.383,1.078,3.933c0.245,0.55,1,2.23,1.678,3.735c0,0,3.878,8.601,9.878,12.822
			c6,4.222,6.29,3.715,6.29,3.715c0.818-1.434,1.788-2.357,2.154-2.053c0.367,0.304,1.017,0.854,1.445,1.223
			c0.428,0.368,1.678,0.92,2.778,1.227c1.1,0.306,3.25,0.556,4.778,0.556c1.528,0,3.228-0.25,3.778-0.556
			c0.55-0.307,1.4-0.307,1.889,0c0.489,0.306,0.561,1.865,0.16,3.466c0,0-0.161,0.645,1.618,1.757c1.777,1.109,6,0.666,6.221,0.666
			c0.224,0,2.778,0.039,2.778,0.039c1.65,0.026,3.15,0.628,3.334,1.338c0.183,0.709-1.017,1.29-2.667,1.29h-0.445
			c-1.65,0-3.5,0.399-4.11,0.888c-0.611,0.489-1.605,1.438-2.21,2.111s6.843,2.118,7.328,2.668s0.593,1.599,0.239,2.331
			c0,0,0,0-1.122,0.224c-1.125,0.222-1.242,0.213-1.242,0.213c-1.646-0.117-3.242,0.237-3.548,0.787
			c-0.307,0.55-1.657,1.501-3.001,2.112c0,0,0,0-0.667,0c-0.667,0-5,0-5,0c-1.65,0-4.253-0.502-5.785-1.114l-10.044-12.483
			c-1.132-1.2-3.073-3.072-4.313-4.16l-8.396-12.285c-0.987-1.321-2.245-3.554-2.795-4.96c-0.55-1.405-1.745-3.53-2.654-4.723
			c-0.91-1.191-2.098-3.44-2.641-4.999l-1.162-3.335c-0.543-1.559-1.836-3.882-2.875-5.164l-0.001-0.003
			c-1.039-1.282-1.971-3.679-2.072-5.325L49.1,90.437c-0.101-1.646-1.062-4.019-2.136-5.272L46.573,65.87
			c-0.178-1.64-0.187-4.326-0.02-5.967l8.094-22.61c0.514-1.568,0.835-3.801,0.713-4.961c-0.122-1.161,0.858-2.921,2.178-3.912
			l2.311-1.733c1.32-0.99,2.6-2.851,2.845-4.134s1.792-2.41,3.44-2.503l8.036-5.841c1.449-0.79,3.979-1.549,5.624-1.687l5.913-0.497
			c1.644-0.138,3.414-1.126,3.933-2.196s2.294-1.945,3.944-1.945h1.555c1.65,0,3.675,0.6,4.5,1.333
			c0.825,0.733,2.844,1.451,4.488,1.595l2.914,0.255c1.644,0.144,4.113,0.212,5.489,0.151c1.375-0.062,3.266,1,4.202,2.359
			l9.15,13.282c0.937,1.358,1.979,1.149,2.316-0.466c0,0,0.386-1.842-0.281-2.064c-0.666-0.222-1.221-0.778-1.666-1.444
			c-0.443-0.667-0.443-0.667-0.443-0.667c-0.062-1.222,0.513-2.122,1.277-2s1.515-0.103,1.667-0.5s0.777-0.922,1.389-1.167
			c0.61-0.244,1.561-0.244,2.11,0c0.55,0.245,1.875,1.27,2.945,2.278c1.07,1.008,3.277,2.055,4.904,2.326
			c0,0,1.708,0.285,1.929,0.729c0.222,0.444,0.962,1.244,0.962,1.244c1.121,1.21,2.944,3.202,4.053,4.424
			c0,0,1.207,1.332,1.54,1.777c0.334,0.444,2.779,1.555,2.558,2.555c-0.224,1,0.109,3.333-0.224,4.445
			c-0.334,1.111-0.334,3.445-0.334,3.445c0,1.65,0.625,2.925,1.39,2.833c0.765-0.092,2.439-0.717,3.723-1.389c0,0,0,0,0.445,0.555
			c0.443,0.555,0.569,0.875,0.569,0.875c0.604,1.536,1.634,4.031,2.289,5.545c0,0,0.251,0.58-0.191,1.135
			c-0.445,0.555,0.333,2.555-0.445,2.667s-0.965,1.261-0.965,1.261c-0.265,1.629-0.267,4.294-0.005,5.923
			c0,0,0.97,6.039,0.637,6.039c-0.334,0,1.281,4.222,0.861,4.333c-0.416,0.111-0.416,0.111-0.416,0.111
			c-0.674,0.794-1.049,1.945-0.835,2.556c0.214,0.611,1.34,1.611,2.501,2.222c0,0,0,0-0.445,0.444
			c-0.445,0.445-0.315,1.469-0.315,1.469c0.208,1.637-0.36,3.276-1.264,3.643c-0.903,0.367-2.048,1.954-2.545,3.527L155.142,86.886z
			"/>
	</g>
	<path fill="#151314" d="M48.943,173.556c-0.333-0.667,1-5.667,1-5.667s9.334-7.891,18.112-9.778c0,0,1.333,0.666,1.444,1
		c0.111,0.333,1.445,2.221,0.445,2c-1-0.222-1.667-0.557-2,0c-0.333,0.556-1.333,2.333-1.333,2.666c0,0.334-0.333,3.557-0.333,3.557
		l0.889,4c0,0,1.889,0.335,1,1.556c-0.889,1.222-1.889,2.444-1.889,2.444s0,1.223-0.111,1.556c-0.11,0.334,0.556,1.666-0.555,1.222
		s-1.889-1.222-2.445-2.222c-0.555-1-0.222-1.557-1.222-3.111s-2.128-4-2.342-5.334c-0.213-1.333,0.343-0.667-0.213-1.333
		c-0.556-0.667-0.556-0.667-0.556-0.667s-1.777,1.89-1.889,2.223s-0.667,1.779-1,2.557c-0.333,0.777-0.666,3.555-1.222,4.555
		c-0.556,1-0.222,3.555-0.667,4c-0.444,0.445-1.445,0.888-1.889,0c-0.444-0.889-0.777-2.889-0.777-3.222s-0.556-1.112-0.556-1.112
		l-1.111-0.333L48.943,173.556z"/>
	<g>
		<path fill="#1A1813" d="M66.61,73.663c-0.245,0-1.595-0.85-3-1.889c0,0,0,0,0.222-0.333c0.222-0.333,1.444-2.222,2.333-2.667
			c0.889-0.444,1.223-1.11,2.445-1.667c1.222-0.556,5.223-2.777,5.667-2.667c0.444,0.111,5.333,0.437,5.667-0.004
			c0.333-0.44,5.222-0.448,5.556,0c0.333,0.448,4.89,1.337,5.111,1.893c0.222,0.556,0.222,0.556,0.222,0.556
			c0.55,1.467,1.875,3.591,2.944,4.722s2.544,2.806,3.278,3.723c0,0,0,0-0.555,1.111c-0.556,1.111,0.556,2-1.222,4
			c-1.778,2-2.667,3.889-3.556,4.056c-0.889,0.167-1.556,2.389-3.333,2.5s-4.111,0.889-6.222,0s-4.111-1.666-4.889-1.889
			s-1.778-1.333-3.778-1.111c-2,0.222-4.889-1.778-5.444-2.333c-0.556-0.555-1-2.333-0.667-2.667
			c0.333-0.333,1.779-1.889,3.223-2.444c1.444-0.556,5.223-0.36,5.667-0.791c0.444-0.431,5-0.654,6.556-0.542
			c1.555,0.111,3.111-0.111,4.333,0c1.222,0.111,3.444-0.889,3.556-1.556c0.111-0.667,1-1.667,0.445-2.444
			c-0.556-0.777-0.666-1.666-1.556-1.777c-0.889-0.111-3.333-1.111-4.667-1.111c-1.333,0-3.556,0.444-5.223,0.555
			c-1.667,0.111-3.111,0.333-4,0.778c-0.889,0.445-2.333,0.778-3,1.111c-0.667,0.333-2,1-2.667,1.556
			c-0.667,0.555-0.667,0.555-0.667,0.555C68.104,73.313,66.854,73.663,66.61,73.663z"/>
	</g>
	<g>
		<path fill="#1A1813" d="M104.056,64.104c0.334,0.226,0.334,0.226,0.334,0.226c2.994-1.283,9.043-2.333,13.443-2.333
			c0,0,0.112,0,0.557,0s6.222,0.111,6.555,0s5.223-0.222,5.557,0c0.333,0.222,3.223,1.77,3.666,2.107
			c0.444,0.337,3.666,2.225,3.777,2.781c0.112,0.556,2.558,1.556,2.112,2.111s-0.668,1.667-2.112,1.111
			c-1.443-0.556-1.666-1.222-3.333-2.333s-0.777-1.644-2.444-1.711c-1.666-0.067-3.334-0.623-4.889-0.512
			c-1.556,0.111-1.556,0.111-1.556,0.111c-2.001,0.22-3.771,0.735-3.931,1.145s0.459,1.145,1.376,1.634c0,0,0,0,0.555,0.667
			s0.555,0.667,0.555,0.667c0.673,0.611,1.523,1.211,1.892,1.333c0,0,0,0-0.446,0.555c-0.445,0.556,0.444,1.667-0.556,1.333
			s-2.056-1.666-3.083-1.889s-2.361-0.778-3.361-0.778s-1,0-1,0c-2.139,1.222-4.539,3.172-5.333,4.333c0,0,0,0-0.223,0.333
			c-0.223,0.333-0.555,2.111-1.111,1.445c-0.556-0.667-1.557-1.556-1.445-2.223c0.112-0.667-0.666-1,0.223-2
			c0.89-1,1.111-1.666,1.444-1.777s0.333-0.111,0.333-0.111c0.796-0.605,1.696-1.706,2.001-2.445c0,0,0,0-0.334-0.222
			c-0.333-0.222-0.333-0.222-0.333-0.222c-1.527-0.367-3.428-0.592-4.222-0.5c-0.795,0.091-1.995,0.667-2.667,1.277c0,0,0,0-1-0.667
			c-1-0.667-1.556-1-1.556-1.667C103.5,65.218,104.056,64.104,104.056,64.104z"/>
	</g>
	<g>
		<path fill="#1A1813" d="M91.722,100.774c0.333,0.556,0.333,0.556,0.333,0.556c0.733,1.039,1.583,2.589,1.889,3.444
			c0,0,0,0-0.556,0.889c-0.555,0.89-1.223,1.334-2.333,2c-1.111,0.667-4.555,1.89-5.778,2.89s-1.223,1-1.223,1
			c-1.527,1.771-2.777,3.646-2.777,4.166c0,0.521,0.8,1.694,1.778,2.61c0,0,0,0,0.555,0.112c0.555,0.111,1.111-0.557,1.444,0
			c0.333,0.556,1.222,0.556,1,1.223c-0.222,0.666-0.222,0.666-0.222,0.666c0.244,1.161,0.456,1.911,0.469,1.666c0,0,0,0,1.154,0.445
			s2.376,1.001,2.932,0.445c0.556-0.557,1.556-0.89,1.333-1.223c-0.222-0.334-0.555-1.557-0.222-1.667
			c0.333-0.11,0.333-0.11,0.333-0.11c0.305-0.429,1.228-1.078,2.049-1.444c0,0,0,0-0.247-0.223c-0.247-0.223,0.753,0.11-0.247-0.223
			c-1-0.333-1.999-0.333-2.777-0.333c-0.778,0-0.778,0-0.778,0c-0.489-1.039-0.539-2.04-0.111-2.223
			c0.428-0.184,0.928-1.084,1.111-2c0,0,0,0,0-0.334c0-0.333,0.667-1.543,1.667-1.16s1.445,0.062,1.778,0s1-2.173,1.222-2.507
			c0.222-0.333,0.938-0.666,1.135-0.666s0.975,0.333,1.086-0.444s0.111-0.777,0.111-0.777c0.917,0,2.366-0.15,3.222-0.335
			c0,0,0,0,0.333-0.11c0.334-0.11,1.334-1,1.112-1.333c-0.222-0.334-0.333-3.445-0.667-3.667c-0.333-0.222-1-2-2.112-1.333
			c-1.11,0.666-0.109,0.333-1.11,0.666c-1,0.334,0.667,0.777-1,0.334c-1.667-0.444-1.445-0.854-2.111-1.148
			c-0.667-0.296-0.556-0.852-1.556-0.629C92.944,100.22,92.394,100.47,91.722,100.774L91.722,100.774z"/>
	</g>
	<path fill="#1A1813" d="M98.5,94.997c-0.333,0-3.445,0-3.445,0s-2.333,0.779-2.333,1.667c0,0.888-0.657,0.706,0.556,2
		c1.213,1.294,0.933,1.111,2.244,1.333c1.311,0.223,2.311,0.454,2.978-0.052c0.667-0.502,1.333-0.948,0.888-1.836
		c-0.443-0.891-0.333-1.224-0.333-1.557s-0.222-1.109-0.222-1.109L98.5,94.997z"/>
</g>
</svg>
