<?xml version="1.0" encoding="utf-8"?>
<!-- Generator: Adobe Illustrator 19.0.0, SVG Export Plug-In . SVG Version: 6.00 Build 0)  -->
<svg version="1.1" id="Layer_1" xmlns="http://www.w3.org/2000/svg" xmlns:xlink="http://www.w3.org/1999/xlink" x="0px" y="0px"
	 viewBox="-237 239 24 24" style="enable-background:new -237 239 24 24;" xml:space="preserve">
<style type="text/css">
	.st0{fill:none;}
	.st1{fill:#EEEEEE;}
</style>
<path class="st0" d="M-311,268h48v48h-48V268z"/>
<path class="st1" d="M-215,248v-2h-2v-2c0-1.1-0.9-2-2-2h-14c-1.1,0-2,0.9-2,2v14c0,1.1,0.9,2,2,2h14c1.1,0,2-0.9,2-2v-2h2v-2h-2v-2
	h2v-2h-2v-2H-215z M-219,258h-14v-14h14V258z M-231,252h5v4h-5V252z M-225,246h4v3h-4V246z M-231,246h5v5h-5V246z M-225,250h4v6h-4
	V250z"/>
<path class="st0" d="M-237,239h24v24h-24V239z M-237,239h24v24h-24V239z"/>
</svg>
