<?xml version="1.0" encoding="utf-8"?>
<!-- Generator: Adobe Illustrator 19.0.0, SVG Export Plug-In . SVG Version: 6.00 Build 0)  -->
<svg version="1.1" id="Layer_1" xmlns="http://www.w3.org/2000/svg" xmlns:xlink="http://www.w3.org/1999/xlink" x="0px" y="0px"
	 viewBox="-237 239 24 24" style="enable-background:new -237 239 24 24;" xml:space="preserve">
<style type="text/css">
	.st0{fill:none;}
	.st1{fill:#EEEEEE;}
</style>
<path class="st0" d="M-237,239h24v24h-24V239z M-221.6,245.4l-1.8-1.8c-0.2-0.2-0.5-0.2-0.7,0l-6.9,6.9v2.5h2.5l6.9-6.9
	C-221.4,245.9-221.4,245.6-221.6,245.4z"/>
<path class="st1" d="M-217,241h-16c-1.1,0-2,0.9-2,2l0,18l4-4h14c1.1,0,2-0.9,2-2v-12C-215,241.9-215.9,241-217,241z M-231,253v-2.5
	l6.9-6.9c0.2-0.2,0.5-0.2,0.7,0l1.8,1.8c0.2,0.2,0.2,0.5,0,0.7l-6.9,6.9H-231z M-219,253h-7.5l2-2h5.5V253z"/>
</svg>
