<?xml version="1.0" encoding="utf-8"?>
<!-- Generator: Adobe Illustrator 19.0.0, SVG Export Plug-In . SVG Version: 6.00 Build 0)  -->
<svg version="1.1" id="Layer_1" xmlns="http://www.w3.org/2000/svg" xmlns:xlink="http://www.w3.org/1999/xlink" x="0px" y="0px"
	 viewBox="0 1 250 315" style="enable-background:new 0 1 250 315;" xml:space="preserve">
<style type="text/css">
	.st0{opacity:0.5;}
	.st1{fill:#38A4DD;}
</style>
<g class="st0">
	<polygon class="st1" points="-369.3,0.3 -376.3,7.3 -376.3,0.3 	"/>
	<polygon class="st1" points="-353.3,0.3 -376.3,23.3 -376.3,13.3 -363.3,0.3 	"/>
	<polygon class="st1" points="-337.3,0.3 -376.3,39.3 -376.3,29.3 -347.3,0.3 	"/>
	<polygon class="st1" points="-321.3,0.3 -376.3,55.3 -376.3,45.3 -331.3,0.3 	"/>
	<polygon class="st1" points="-305.3,0.3 -376.3,71.3 -376.3,61.3 -315.3,0.3 	"/>
	<polygon class="st1" points="-289.3,0.3 -376.3,87.3 -376.3,77.3 -299.3,0.3 	"/>
	<polygon class="st1" points="-273.3,0.3 -376.3,103.3 -376.3,93.3 -283.3,0.3 	"/>
	<polygon class="st1" points="-257.3,0.3 -376.3,119.3 -376.3,109.3 -267.3,0.3 	"/>
	<polygon class="st1" points="-241.3,0.3 -376.3,135.3 -376.3,125.3 -251.3,0.3 	"/>
	<polygon class="st1" points="-225.3,0.3 -376.3,151.3 -376.3,141.3 -235.3,0.3 	"/>
	<polygon class="st1" points="-209.3,0.3 -376.3,167.3 -376.3,157.3 -219.3,0.3 	"/>
	<polygon class="st1" points="-193.3,0.3 -376.3,183.3 -376.3,173.3 -203.3,0.3 	"/>
	<polygon class="st1" points="-177.3,0.3 -376.3,199.3 -376.3,189.3 -187.3,0.3 	"/>
	<polygon class="st1" points="-161.3,0.3 -376.3,215.3 -376.3,205.3 -171.3,0.3 	"/>
	<polygon class="st1" points="-145.3,0.3 -376.3,231.3 -376.3,221.3 -155.3,0.3 	"/>
	<polygon class="st1" points="-129.3,0.3 -376.3,247.3 -376.3,237.3 -139.3,0.3 	"/>
	<polygon class="st1" points="-113.3,0.3 -376.3,263.3 -376.3,253.3 -123.3,0.3 	"/>
	<polygon class="st1" points="-97.3,0.3 -376.3,279.3 -376.3,269.3 -107.3,0.3 	"/>
	<polygon class="st1" points="-81.3,0.3 -376.3,295.3 -376.3,285.3 -91.3,0.3 	"/>
	<polygon class="st1" points="-65.3,0.3 -376.3,311.3 -376.3,301.3 -75.3,0.3 	"/>
	<polygon class="st1" points="-49.3,0.3 -365.6,316.7 -375.7,316.7 -59.3,0.3 	"/>
	<polygon class="st1" points="-33.3,0.3 -349.6,316.7 -359.7,316.7 -43.3,0.3 	"/>
	<polygon class="st1" points="-17.3,0.3 -333.6,316.7 -343.7,316.7 -27.3,0.3 	"/>
	<polygon class="st1" points="-1.3,0.3 -317.6,316.7 -327.7,316.7 -11.3,0.3 	"/>
	<polygon class="st1" points="14.7,0.3 -301.6,316.7 -311.7,316.7 4.7,0.3 	"/>
	<polygon class="st1" points="30.7,0.3 -285.6,316.7 -295.7,316.7 20.7,0.3 	"/>
	<polygon class="st1" points="46.7,0.3 -269.6,316.7 -279.7,316.7 36.7,0.3 	"/>
	<polygon class="st1" points="62.7,0.3 -253.6,316.7 -263.7,316.7 52.7,0.3 	"/>
	<polygon class="st1" points="78.7,0.3 -237.6,316.7 -247.7,316.7 68.7,0.3 	"/>
	<polygon class="st1" points="94.7,0.3 -221.6,316.7 -231.8,316.7 84.7,0.3 	"/>
	<polygon class="st1" points="110.7,0.3 -205.6,316.7 -215.8,316.7 100.7,0.3 	"/>
	<polygon class="st1" points="126.7,0.3 -189.6,316.7 -199.8,316.7 116.7,0.3 	"/>
	<polygon class="st1" points="142.7,0.3 -173.6,316.7 -183.8,316.7 132.7,0.3 	"/>
	<polygon class="st1" points="158.7,0.3 -157.6,316.7 -167.8,316.7 148.7,0.3 	"/>
	<polygon class="st1" points="174.7,0.3 -141.6,316.7 -151.8,316.7 164.7,0.3 	"/>
	<polygon class="st1" points="190.7,0.3 -125.6,316.7 -135.8,316.7 180.7,0.3 	"/>
	<polygon class="st1" points="206.7,0.3 -109.6,316.7 -119.8,316.7 196.7,0.3 	"/>
	<polygon class="st1" points="222.7,0.3 -93.6,316.7 -103.8,316.7 212.7,0.3 	"/>
	<polygon class="st1" points="238.7,0.3 -77.6,316.7 -87.8,316.7 228.7,0.3 	"/>
	<polygon class="st1" points="254.7,0.3 -61.6,316.7 -71.8,316.7 244.7,0.3 	"/>
	<polygon class="st1" points="270.7,0.3 -45.6,316.7 -55.8,316.7 260.7,0.3 	"/>
	<polygon class="st1" points="286.7,0.3 -29.6,316.7 -39.8,316.7 276.7,0.3 	"/>
	<polygon class="st1" points="302.7,0.3 -13.6,316.7 -23.8,316.7 292.7,0.3 	"/>
	<polygon class="st1" points="318.7,0.3 2.4,316.7 -7.8,316.7 308.7,0.3 	"/>
	<polygon class="st1" points="334.7,0.3 18.4,316.7 8.3,316.7 324.7,0.3 	"/>
	<polygon class="st1" points="350.7,0.3 34.4,316.7 24.3,316.7 340.7,0.3 	"/>
	<polygon class="st1" points="366.7,0.3 50.4,316.7 40.3,316.7 356.7,0.3 	"/>
	<polygon class="st1" points="382.7,0.3 66.4,316.7 56.3,316.7 372.7,0.3 	"/>
	<polygon class="st1" points="398.7,0.3 82.4,316.7 72.3,316.7 388.7,0.3 	"/>
	<polygon class="st1" points="414.7,0.3 98.4,316.7 88.3,316.7 404.7,0.3 	"/>
	<polygon class="st1" points="430.7,0.3 114.4,316.7 104.3,316.7 420.7,0.3 	"/>
	<polygon class="st1" points="446.7,0.3 130.4,316.7 120.3,316.7 436.7,0.3 	"/>
	<polygon class="st1" points="462.7,0.3 146.4,316.7 136.3,316.7 452.7,0.3 	"/>
	<polygon class="st1" points="478.7,0.3 162.4,316.7 152.3,316.7 468.7,0.3 	"/>
	<polygon class="st1" points="494.7,0.3 178.4,316.7 168.3,316.7 484.7,0.3 	"/>
	<polygon class="st1" points="510.7,0.3 194.4,316.7 184.3,316.7 500.7,0.3 	"/>
	<polygon class="st1" points="526.7,0.3 210.4,316.7 200.3,316.7 516.7,0.3 	"/>
	<polygon class="st1" points="542.7,0.3 226.4,316.7 216.3,316.7 532.7,0.3 	"/>
	<polygon class="st1" points="558.7,0.3 242.4,316.7 232.3,316.7 548.7,0.3 	"/>
	<polygon class="st1" points="574.7,0.3 258.4,316.7 248.3,316.7 564.7,0.3 	"/>
	<polygon class="st1" points="590.7,0.3 274.3,316.7 264.3,316.7 580.7,0.3 	"/>
	<polygon class="st1" points="606.7,0.3 290.3,316.7 280.3,316.7 596.7,0.3 	"/>
	<polygon class="st1" points="622.7,0.3 306.3,316.7 296.3,316.7 612.7,0.3 	"/>
	<polygon class="st1" points="626.3,2.6 626.3,12.7 322.3,316.7 312.3,316.7 	"/>
	<polygon class="st1" points="626.3,18.6 626.3,28.7 338.3,316.7 328.3,316.7 	"/>
	<polygon class="st1" points="626.3,34.6 626.3,44.7 354.3,316.7 344.3,316.7 	"/>
	<polygon class="st1" points="626.3,50.6 626.3,60.7 370.3,316.7 360.3,316.7 	"/>
	<polygon class="st1" points="626.3,66.6 626.3,76.7 386.3,316.7 376.3,316.7 	"/>
	<polygon class="st1" points="626.3,82.6 626.3,92.7 402.3,316.7 392.3,316.7 	"/>
	<polygon class="st1" points="626.3,98.6 626.3,108.7 418.3,316.7 408.3,316.7 	"/>
	<polygon class="st1" points="626.3,114.6 626.3,124.7 434.3,316.7 424.3,316.7 	"/>
	<polygon class="st1" points="626.3,130.6 626.3,140.7 450.3,316.7 440.3,316.7 	"/>
	<polygon class="st1" points="626.3,146.6 626.3,156.7 466.3,316.7 456.3,316.7 	"/>
	<polygon class="st1" points="626.3,162.6 626.3,172.7 482.3,316.7 472.3,316.7 	"/>
	<polygon class="st1" points="626.3,178.6 626.3,188.7 498.3,316.7 488.3,316.7 	"/>
	<polygon class="st1" points="626.3,194.6 626.3,204.7 514.3,316.7 504.3,316.7 	"/>
	<polygon class="st1" points="626.3,210.6 626.3,220.7 530.3,316.7 520.3,316.7 	"/>
	<polygon class="st1" points="626.3,226.6 626.3,236.7 546.3,316.7 536.3,316.7 	"/>
	<polygon class="st1" points="626.3,242.6 626.3,252.7 562.3,316.7 552.3,316.7 	"/>
	<polygon class="st1" points="626.3,258.6 626.3,268.7 578.3,316.7 568.3,316.7 	"/>
	<polygon class="st1" points="626.3,274.6 626.3,284.7 594.3,316.7 584.3,316.7 	"/>
	<polygon class="st1" points="626.3,290.6 626.3,300.7 610.3,316.7 600.3,316.7 	"/>
	<polygon class="st1" points="626.3,306.6 626.3,316.7 616.3,316.7 	"/>
</g>
</svg>
