<?xml version="1.0" encoding="utf-8"?>
<!-- Generator: Adobe Illustrator 18.0.0, SVG Export Plug-In . SVG Version: 6.00 Build 0)  -->
<!DOCTYPE svg PUBLIC "-//W3C//DTD SVG 1.1//EN" "http://www.w3.org/Graphics/SVG/1.1/DTD/svg11.dtd">
<svg version="1.1" id="Layer_1" xmlns="http://www.w3.org/2000/svg" xmlns:xlink="http://www.w3.org/1999/xlink" x="0px" y="0px"
	 viewBox="0 0 48 48" enable-background="new 0 0 48 48" xml:space="preserve">
<path id="YouTube" fill="#CD332D" d="M-10,23.6c0-18.8,15.2-34,34-34s34,15.2,34,34s-15.2,34-34,34S-10,42.3-10,23.6z"/>
<path id="Path_21_" fill="#FFFFFF" d="M15.9,38.5V28.2h2l0-1.7h-6v1.7h2v10.3H15.9z M37.5,24c1.4,1.4,1.5,8.5,1.5,8.6
	c0,0,0,7.1-1.5,8.6C36.1,42.5,24,42.6,24,42.6s-12.1,0-13.5-1.5C9,39.7,9,32.6,9,32.6c0,0,0-7.1,1.4-8.6c1.4-1.4,13.5-1.5,13.5-1.4
	C24,22.5,36.1,22.6,37.5,24z M22,37.5v1h1.7l0-8.9H22v6.7c-0.2,0.2-0.3,0.3-0.5,0.5c-0.2,0.1-0.4,0.2-0.5,0.2c-0.2,0-0.3,0-0.4-0.1
	c-0.1-0.1-0.1-0.2-0.1-0.5v-6.8h-1.7V37c0,0.5,0.1,0.9,0.3,1.2c0.2,0.3,0.5,0.4,0.9,0.4c0.3,0,0.7-0.1,1-0.3
	C21.3,38.1,21.6,37.8,22,37.5z M28.4,38.6c0.5,0,0.9-0.2,1.2-0.5c0.3-0.3,0.4-0.8,0.4-1.4v-4.9c0-0.7-0.1-1.3-0.4-1.7
	c-0.3-0.4-0.7-0.6-1.3-0.6c-0.3,0-0.5,0.1-0.8,0.2c-0.3,0.1-0.5,0.3-0.7,0.6v-3.9H25v12h1.8v-0.7c0.2,0.3,0.5,0.5,0.7,0.6
	C27.8,38.5,28.1,38.6,28.4,38.6z M32.8,35.9v-1.7l3.3,0V32c0-0.8-0.2-1.5-0.6-1.9c-0.4-0.4-1-0.7-1.8-0.7c-0.8,0-1.4,0.2-1.9,0.7
	C31.2,30.6,31,31.2,31,32v4c0,0.9,0.2,1.5,0.7,2c0.4,0.5,1.1,0.7,1.8,0.7c0.9,0,1.5-0.2,2-0.7c0.4-0.5,0.7-1.1,0.7-2.1v-0.5h-1.8
	v0.4c0,0.5-0.1,0.9-0.2,1c-0.1,0.2-0.3,0.2-0.6,0.2c-0.3,0-0.5-0.1-0.6-0.3C32.8,36.7,32.8,36.4,32.8,35.9z M28.1,31.1
	c0.1,0.2,0.2,0.4,0.2,0.7v4.6c0,0.3-0.1,0.5-0.2,0.6c-0.1,0.1-0.3,0.2-0.5,0.2c-0.1,0-0.3,0-0.4-0.1c-0.1-0.1-0.3-0.2-0.4-0.3v-5.5
	c0.1-0.1,0.2-0.2,0.4-0.3c0.1-0.1,0.2-0.1,0.4-0.1C27.7,30.9,27.9,31,28.1,31.1z M32.9,31.2c0.1-0.2,0.3-0.2,0.6-0.2
	c0.3,0,0.5,0.1,0.6,0.2c0.1,0.2,0.2,0.4,0.2,0.8v0.9h-1.5v-0.9C32.8,31.6,32.8,31.3,32.9,31.2z"/>
<path id="Path_22_" fill="#FFFFFF" d="M13,5.6h2.2l1.4,5.3h0.1l1.4-5.3h2.3l-2.6,7.8v5.5h-2.2v-5.3L13,5.6z M23.5,8.8
	c0.8,0,1.5,0.2,2,0.7c0.5,0.5,0.8,1.1,0.8,1.8v5.1c0,0.8-0.3,1.5-0.8,2c-0.5,0.5-1.2,0.7-2.1,0.7c-0.9,0-1.5-0.2-2.1-0.7
	c-0.5-0.5-0.8-1.2-0.8-2l0-5.1c0-0.8,0.3-1.4,0.8-1.8C21.9,9,22.6,8.8,23.5,8.8z M23.4,17.4c0.3,0,0.5-0.1,0.6-0.2
	c0.2-0.2,0.2-0.4,0.2-0.6v-5.3c0-0.2-0.1-0.4-0.2-0.5c-0.2-0.1-0.4-0.2-0.6-0.2c-0.2,0-0.4,0.1-0.6,0.2c-0.1,0.1-0.2,0.3-0.2,0.5
	v5.3c0,0.3,0.1,0.5,0.2,0.6C23,17.3,23.2,17.4,23.4,17.4z M31.6,18.8v-1.1c-0.4,0.4-0.7,0.7-1.1,0.9C30,18.9,29.7,19,29.3,19
	c-0.5,0-0.8-0.1-1-0.4c-0.2-0.3-0.3-0.7-0.3-1.3V9h2v7.5c0,0.2,0,0.4,0.1,0.5c0.1,0.1,0.2,0.2,0.4,0.2c0.1,0,0.3-0.1,0.5-0.2
	c0.2-0.1,0.4-0.3,0.6-0.5V9h2v9.8H31.6z"/>
</svg>
