<?xml version="1.0" encoding="utf-8"?>
<!-- Generator: Adobe Illustrator 18.0.0, SVG Export Plug-In . SVG Version: 6.00 Build 0)  -->
<!DOCTYPE svg PUBLIC "-//W3C//DTD SVG 1.1//EN" "http://www.w3.org/Graphics/SVG/1.1/DTD/svg11.dtd">
<svg version="1.1" id="Layer_1" xmlns="http://www.w3.org/2000/svg" xmlns:xlink="http://www.w3.org/1999/xlink" x="0px" y="0px"
	 viewBox="0 0 60 60" enable-background="new 0 0 60 60" xml:space="preserve">
<polygon fill="#42B3E6" points="20,40 20,44.2 17.7,40.2 17.6,40 "/>
<polygon fill="#2C75BC" points="10,35.4 10,40 7.3,40 "/>
<polygon fill="#2C75BC" points="10,40 10,48.5 2.4,48.5 7,40.6 7.3,40 "/>
<polygon fill="#2C75BC" points="20,30 20,36.2 17.8,40 10,40 10,35.4 13.1,30 "/>
<polygon fill="#42B3E6" points="20,20 20,22.9 18.6,20.5 18.9,20 "/>
<polygon fill="#2C75BC" points="18.1,22.8 20,26 20,30 13.1,30 17.6,22.3 17.7,22 17.7,22.1 18,22.5 "/>
<polygon fill="#42B3E6" points="20,18.1 20,20 18.9,20 "/>
<polygon fill="#2C75BC" points="17.8,40 17.7,40.2 16.4,42.4 12.9,48.5 10,48.5 10,40 "/>
<polygon fill="#2C75BC" points="22.9,31.1 20,36.2 20,30 22.3,30 "/>
<polygon fill="#42B3E6" points="30,30 30,40 29.9,40 26.7,34.5 24.1,30 "/>
<polygon fill="#2C75BC" points="21.7,29.1 22.3,30 20,30 20,26 "/>
<polygon fill="#42B3E6" points="30,22.1 30,30 24.1,30 20,22.9 20,20 28.8,20 "/>
<polygon fill="#42B3E6" points="28.8,20 20,20 20,18.1 23.9,11.5 "/>
<polygon opacity="0.28" fill="#D33737" points="30,40 30,40.2 29.9,40 "/>
<polygon fill="#42B3E6" points="40,30 40,36.2 39,34.5 36.4,30 "/>
<polygon fill="#42B3E6" points="34.6,30 40,39.4 40,40 30,40 30,30 "/>
<polygon fill="#42B3E6" points="30,22.1 34.6,30 30,30 "/>
<polygon fill="#42B3E6" points="40,20 40,30 36.4,30 30.9,20.5 31.2,20 "/>
<polygon fill="#42B3E6" points="40,18.1 40,20 31.2,20 36.2,11.5 "/>
<polygon fill="#42B3E6" points="40,40 40,48.5 34.8,48.5 30,40.2 30,40 "/>
<polygon fill="#42B3E6" points="52.7,40 50,40 50,35.4 "/>
<polygon fill="#42B3E6" points="57.6,48.5 50,48.5 50,40 52.7,40 "/>
<polygon opacity="0.28" fill="#D33737" points="40,39.4 40.3,40 40,40 "/>
<polygon fill="#42B3E6" points="50,35.4 50,40 42.2,40 40,36.2 40,30 46.9,30 "/>
<polygon fill="#42B3E6" points="46.9,30 40,30 40,20 41.1,20 "/>
<polygon fill="#42B3E6" points="41.1,20 40,20 40,18.1 "/>
<polygon fill="#42B3E6" points="40.3,40 45.3,48.5 40,48.5 40,40 "/>
<polygon fill="#42B3E6" points="50,40 50,48.5 47.1,48.5 42.2,40 "/>
<polygon fill="#42B3E6" points="20,36.2 20,40 17.8,40 "/>
<polygon fill="#42B3E6" points="28.1,40 20,40 20,36.2 22.9,31.1 "/>
<polygon fill="#42B3E6" points="28.1,40 30,43.4 30,48.5 22.5,48.5 20,44.2 20,40 "/>
<polygon fill="#42B3E6" points="30,43.4 33,48.5 30,48.5 "/>
</svg>
